<mxfile host="app.diagrams.net" modified="2023-10-29T14:24:24.888Z" agent="Mozilla/5.0 (Windows NT 10.0; Win64; x64) AppleWebKit/537.36 (KHTML, like Gecko) Chrome/118.0.0.0 Safari/537.36" etag="30byrk5z4IWD7282hXuT" version="22.0.8" type="device">
  <diagram name="Страница — 1" id="WVSbEB8i4Y_fLz9Zii90">
    <mxGraphModel dx="1154" dy="545" grid="1" gridSize="10" guides="1" tooltips="1" connect="1" arrows="1" fold="1" page="1" pageScale="1" pageWidth="827" pageHeight="1169" math="0" shadow="0">
      <root>
        <mxCell id="0" />
        <mxCell id="1" parent="0" />
        <mxCell id="XW1QsoN-NjcWC9qq3ixe-9" value="Triagle" style="swimlane;fontStyle=1;align=center;verticalAlign=top;childLayout=stackLayout;horizontal=1;startSize=26;horizontalStack=0;resizeParent=1;resizeParentMax=0;resizeLast=0;collapsible=1;marginBottom=0;whiteSpace=wrap;html=1;" vertex="1" parent="1">
          <mxGeometry x="340" y="360" width="290" height="462" as="geometry" />
        </mxCell>
        <mxCell id="XW1QsoN-NjcWC9qq3ixe-10" value="Coordinate:double;" style="text;strokeColor=none;fillColor=none;align=left;verticalAlign=top;spacingLeft=4;spacingRight=4;overflow=hidden;rotatable=0;points=[[0,0.5],[1,0.5]];portConstraint=eastwest;whiteSpace=wrap;html=1;" vertex="1" parent="XW1QsoN-NjcWC9qq3ixe-9">
          <mxGeometry y="26" width="290" height="26" as="geometry" />
        </mxCell>
        <mxCell id="XW1QsoN-NjcWC9qq3ixe-11" value="" style="line;strokeWidth=1;fillColor=none;align=left;verticalAlign=middle;spacingTop=-1;spacingLeft=3;spacingRight=3;rotatable=0;labelPosition=right;points=[];portConstraint=eastwest;strokeColor=inherit;" vertex="1" parent="XW1QsoN-NjcWC9qq3ixe-9">
          <mxGeometry y="52" width="290" height="8" as="geometry" />
        </mxCell>
        <mxCell id="XW1QsoN-NjcWC9qq3ixe-13" value="item: attribute" style="label;fontStyle=0;strokeColor=none;fillColor=none;align=left;verticalAlign=top;overflow=hidden;spacingLeft=28;spacingRight=4;rotatable=0;points=[[0,0.5],[1,0.5]];portConstraint=eastwest;imageWidth=16;imageHeight=16;whiteSpace=wrap;html=1;image=img/clipart/Gear_128x128.png" vertex="1" parent="XW1QsoN-NjcWC9qq3ixe-9">
          <mxGeometry y="60" width="290" height="26" as="geometry" />
        </mxCell>
        <mxCell id="XW1QsoN-NjcWC9qq3ixe-14" value="+ item: attribute" style="text;strokeColor=none;fillColor=none;align=left;verticalAlign=top;spacingLeft=4;spacingRight=4;overflow=hidden;rotatable=0;points=[[0,0.5],[1,0.5]];portConstraint=eastwest;whiteSpace=wrap;html=1;" vertex="1" parent="XW1QsoN-NjcWC9qq3ixe-9">
          <mxGeometry y="86" width="290" height="26" as="geometry" />
        </mxCell>
        <mxCell id="XW1QsoN-NjcWC9qq3ixe-12" value="Triagle()&lt;br&gt;&lt;br&gt;Set_CoordinateA(NewCoordinate:double):double;&lt;br&gt;Set_CoordinateB(NewCoordinate:double):double;&lt;br&gt;Set_CoordinateB(NewCoordinate:double):double;&lt;br&gt;&lt;br&gt;Get_X_A():double;&lt;br&gt;Get_X_B():double;&lt;br&gt;Get_X_C():double;&lt;br&gt;Get_Y_A():double;&lt;br&gt;Get_Y_B():double;&lt;br&gt;Get_Y_C():double;&lt;br&gt;&lt;br&gt;Length_A():double;&lt;br&gt;Length_B():double;&lt;br&gt;Length_C():double;&lt;br&gt;&lt;br&gt;Square():double;&lt;br&gt;Perimeter():double;&amp;nbsp; &lt;br&gt;&lt;br&gt;Angle_A():double;&lt;br&gt;Angle_B():double;&lt;br&gt;Angle_C():double ;" style="text;strokeColor=none;fillColor=none;align=left;verticalAlign=top;spacingLeft=4;spacingRight=4;overflow=hidden;rotatable=0;points=[[0,0.5],[1,0.5]];portConstraint=eastwest;whiteSpace=wrap;html=1;" vertex="1" parent="XW1QsoN-NjcWC9qq3ixe-9">
          <mxGeometry y="112" width="290" height="350" as="geometry" />
        </mxCell>
      </root>
    </mxGraphModel>
  </diagram>
</mxfile>
